<svg width="34" height="50" viewBox="0 0 34 50" fill="none" xmlns="http://www.w3.org/2000/svg">
<g clip-path="url(#clip0_202_370)">
<path d="M7.63189 0.473809C6.35539 -0.0694494 5.07815 -0.124426 3.94077 0.316835C0.968931 1.46846 -0.122569 5.71614 1.50839 9.7866C2.80857 13.0346 5.46295 15.2604 8.07589 15.3639L8.08699 27.6201L7.81837 27.6208C7.59489 27.6215 7.41507 27.7987 7.41507 28.0172L7.42173 34.9486C7.42173 34.9494 7.42173 34.9494 7.42173 34.9494C7.42173 34.9501 7.42173 34.9501 7.42173 34.9501L7.42321 36.5994C7.42321 36.6001 7.42321 36.6001 7.42321 36.6001C7.42321 36.6008 7.42321 36.6008 7.42321 36.6008L7.42469 38.2501V38.2509L7.43357 47.8147C7.42173 48.4194 7.63855 48.9894 8.02853 49.3772C8.34451 49.6911 8.75373 49.864 9.18219 49.864C9.18367 49.864 9.18515 49.864 9.18663 49.864C9.61139 49.8633 10.0191 49.6889 10.3344 49.3743C10.7258 48.9829 10.9441 48.4122 10.9338 47.8139L10.9219 34.9407C10.9219 34.94 10.9219 34.94 10.9219 34.9392C10.9219 34.9392 10.9219 34.9385 10.9219 34.9378L10.9153 28.0078C10.9153 27.9022 10.8723 27.8024 10.7961 27.7279C10.7206 27.6541 10.6178 27.6128 10.5112 27.6128C10.5105 27.6128 10.5097 27.6128 10.5097 27.6128L10.2419 27.6136L10.23 14.9052C12.9503 13.5424 13.8642 9.53703 12.2909 5.61053C11.3371 3.22989 9.59511 1.30931 7.63189 0.473809ZM8.49325 28.4107L9.83857 28.4064L10.1064 28.4057L10.1124 34.5464L8.22981 34.5522L8.22389 28.4115L8.49325 28.4107ZM8.23203 36.9936L10.1146 36.9886L10.1153 37.8479L8.23277 37.8537L8.23203 36.9936ZM10.1138 36.1972L8.23129 36.2023L8.23055 35.3429L10.1131 35.3378L10.1138 36.1972ZM9.75643 48.8209C9.64099 48.9359 9.44859 49.0733 9.18367 49.0741C9.18293 49.0741 9.18219 49.0741 9.18145 49.0741C8.91357 49.0741 8.71969 48.9374 8.60499 48.8223C8.36597 48.5851 8.23425 48.2234 8.24239 47.8219L8.23425 38.6444L10.1161 38.6386L10.1249 47.8212C10.1309 48.2161 9.99693 48.5807 9.75643 48.8209ZM9.66393 14.3034C9.65209 14.3084 9.64469 14.3186 9.63285 14.3244C9.59807 14.3424 9.56403 14.3627 9.53665 14.3902C9.51815 14.4083 9.50779 14.4307 9.49373 14.4517C9.47893 14.4734 9.46191 14.4922 9.45155 14.5168C9.43675 14.5508 9.43305 14.5884 9.42935 14.626C9.42713 14.6398 9.42121 14.6513 9.42121 14.6658C9.42121 14.6658 9.42121 14.6658 9.42121 14.6665V14.6694C9.42121 14.6694 9.42121 14.6701 9.42121 14.6709L9.43231 27.6165H9.35609L8.89581 27.6179L8.88397 14.9725C8.88397 14.9696 8.88175 14.9667 8.88175 14.9631C8.88175 14.9595 8.88323 14.9566 8.88323 14.953C8.88249 14.9334 8.87287 14.9175 8.86843 14.8987C8.86251 14.8669 8.85659 14.8343 8.84327 14.8054C8.83883 14.7974 8.83217 14.7909 8.82773 14.783C8.78037 14.7005 8.70785 14.6369 8.61609 14.6043C8.60055 14.5985 8.58427 14.5985 8.56725 14.5949C8.53839 14.5884 8.51101 14.5775 8.47993 14.5775H8.47919C8.47549 14.5775 8.47253 14.5797 8.46883 14.5797C8.46587 14.5797 8.46217 14.5775 8.45921 14.5775C6.10305 14.686 3.48789 12.56 2.26097 9.49725C0.792811 5.83188 1.67933 2.04354 4.23825 1.05251C5.17213 0.690823 6.23329 0.742183 7.30999 1.19936C9.08007 1.9524 10.6607 3.71021 11.5383 5.89988C12.9739 9.48495 12.134 13.2545 9.66393 14.3034Z" fill="white"/>
<path d="M10.4091 4.4437C10.3943 4.4126 10.3744 4.38583 10.3514 4.35907C9.67431 3.35068 8.82257 2.53615 7.88795 2.02545C7.84651 1.99217 7.79841 1.96685 7.74365 1.95166C7.74217 1.95094 7.74143 1.95166 7.73995 1.95094C7.63339 1.89741 7.52905 1.83737 7.42101 1.79107C6.40203 1.35777 5.38527 1.31364 4.48026 1.66376C2.1648 2.56147 1.2916 5.83549 2.45044 9.06393C2.45118 9.0661 2.45192 9.06972 2.45266 9.07189C2.48966 9.17388 2.52222 9.27588 2.56292 9.37788C3.02246 10.5237 3.70178 11.5321 4.50245 12.3141C4.52392 12.3401 4.54538 12.3647 4.57276 12.385C5.12775 12.913 5.73751 13.3348 6.37835 13.6075C6.94297 13.8476 7.50759 13.9684 8.05297 13.9684C8.49031 13.9684 8.91581 13.8903 9.31911 13.7341C11.7093 12.8074 12.5692 9.34749 11.2365 6.01995C11.0108 5.45716 10.7281 4.93126 10.4091 4.4437ZM4.16502 2.74304L2.8308 7.34229C2.51556 5.37614 3.01432 3.59446 4.16502 2.74304ZM3.23188 8.85777L5.13367 2.29888C5.33273 2.25331 5.53549 2.22148 5.74565 2.22148C6.18151 2.22148 6.63735 2.32058 7.09837 2.5159C7.11613 2.52385 7.13389 2.53471 7.15165 2.54266L4.62086 11.271C4.09546 10.6489 3.6448 9.90956 3.3155 9.08852C3.28442 9.01185 3.26 8.93444 3.23188 8.85777ZM5.26613 11.943L7.87389 2.94776C8.51769 3.376 9.10747 3.96917 9.60401 4.68314L7.17829 13.0469C7.01993 13.002 6.86083 12.9499 6.70025 12.8812C6.19779 12.6678 5.71457 12.3452 5.26613 11.943ZM9.02089 12.9984C8.69455 13.1257 8.34453 13.1814 7.98267 13.1727L10.1716 5.62426C10.2841 5.84561 10.3892 6.07348 10.4831 6.3093C11.6546 9.23103 10.9982 12.2323 9.02089 12.9984Z" fill="white"/>
<path d="M33.6762 9.64769C33.7436 9.45889 33.657 9.25056 33.4735 9.16158L27.0347 6.04526C26.8505 5.95556 26.6263 6.01632 26.5153 6.1856C26.4043 6.35487 26.4405 6.57911 26.6004 6.70643L31.1432 10.3168L29.6691 14.6853C29.6625 14.7048 29.6647 14.7251 29.6617 14.7453C29.658 14.7663 29.6484 14.7866 29.6484 14.8083C29.6484 14.809 29.6484 14.8097 29.6484 14.8097L29.6824 27.615L29.4138 27.6164C29.1903 27.6172 29.0105 27.7944 29.0113 28.0129L29.0305 34.9457C29.0305 34.9457 29.0298 34.9464 29.0298 34.9472L29.0305 34.9479L29.0349 36.5958C29.0349 36.5965 29.0342 36.5972 29.0342 36.5979C29.0342 36.5986 29.0349 36.5994 29.0349 36.6001L29.0394 38.248C29.0394 38.248 29.0394 38.248 29.0394 38.2487C29.0394 38.2487 29.0394 38.2487 29.0394 38.2494L29.0653 47.8002C29.0305 48.3803 29.2325 48.9424 29.6195 49.341C29.9466 49.6788 30.3706 49.8647 30.8139 49.8647C30.8161 49.8647 30.8176 49.8647 30.8198 49.8647C31.2372 49.8633 31.6405 49.6889 31.9557 49.3735C32.3531 48.9764 32.5744 48.4049 32.564 47.8125L32.5285 34.9349L32.51 28.002C32.5092 27.8971 32.4671 27.7958 32.3908 27.7228C32.3146 27.6483 32.2125 27.6078 32.1059 27.6078C32.1052 27.6078 32.1045 27.6078 32.1037 27.6078L31.8358 27.6085L31.8018 14.8647L33.6762 9.64769ZM30.088 28.4056C30.088 28.4056 30.0887 28.4056 30.0894 28.4056L30.5312 28.4042L30.9538 28.4028L31.7026 28.3999L31.7189 34.5421L29.8371 34.5486L29.8208 28.4064L30.0872 28.4049C30.0872 28.4049 30.0872 28.4056 30.088 28.4056ZM29.843 36.9914L31.7248 36.9842L31.7278 37.8443L29.846 37.8508L29.843 36.9914ZM31.7234 36.1936L29.8415 36.2001L29.8386 35.34L31.7204 35.3335L31.7234 36.1936ZM31.377 48.8209C31.2623 48.9359 31.0714 49.0733 30.8161 49.0741C30.8154 49.0741 30.8146 49.0741 30.8132 49.0741C30.5941 49.0741 30.378 48.9757 30.2056 48.797C29.9718 48.5561 29.8497 48.2096 29.8719 47.8219L29.8475 38.6422L31.7293 38.6357L31.7537 47.8204C31.7611 48.2038 31.6205 48.5771 31.377 48.8209ZM30.4905 27.6128L30.4572 14.8719L31.9979 10.3067C32.0512 10.1504 31.9994 9.979 31.8699 9.87556L29.9141 8.32174L32.7941 9.71569L31.0167 14.6665C31.0085 14.6882 31.0115 14.7092 31.007 14.7309C31.0033 14.7533 30.9937 14.7743 30.9937 14.7974C30.9937 14.7974 30.9937 14.7982 30.9937 14.7989L31.027 27.6107L30.8931 27.6114L30.4905 27.6128Z" fill="white"/>
<path d="M23.8881 5.03473C22.9698 4.46904 21.9086 4.17029 20.8201 4.17029C20.8179 4.17029 20.8164 4.17029 20.8149 4.17029C17.6248 4.17173 15.0281 6.72092 15.0266 9.85099C15.0244 12.5832 17.018 14.9146 19.716 15.421L19.7086 27.6129H19.4392C19.2165 27.6129 19.0359 27.7901 19.0359 28.0078L19.0315 34.9421C19.0315 34.9421 19.0315 34.9421 19.0315 34.9429C19.0315 34.9436 19.0315 34.9429 19.0315 34.9436L19.0234 47.8125C19.013 48.4187 19.2313 48.9894 19.622 49.3779C19.9373 49.6918 20.3457 49.8647 20.7705 49.8647C20.7712 49.8647 20.772 49.8647 20.772 49.8647C21.1967 49.864 21.606 49.6911 21.9212 49.3764C22.3134 48.9865 22.5324 48.4158 22.5221 47.8176L22.528 38.2422L22.5346 28.0078C22.5346 27.9022 22.4925 27.8017 22.4162 27.7279C22.34 27.6541 22.2379 27.6121 22.1306 27.6121C22.1306 27.6121 22.1306 27.6121 22.1299 27.6121H21.8627L21.8709 14.3613C21.8709 14.349 21.865 14.3374 21.8635 14.3251C21.8612 14.2983 21.8553 14.273 21.8472 14.2477C21.8398 14.2231 21.8317 14.2007 21.8198 14.179C21.8072 14.1558 21.7932 14.1363 21.7769 14.1168C21.7606 14.0965 21.7436 14.0791 21.7244 14.0625C21.7044 14.0459 21.6844 14.0336 21.6622 14.0213C21.6378 14.0075 21.6141 13.9974 21.5875 13.9887C21.5749 13.9851 21.566 13.9771 21.5534 13.9743C19.5717 13.5482 18.1879 11.8526 18.1901 9.85026C18.1916 7.51881 20.1237 5.62139 22.4969 5.61994C22.8617 5.61994 23.2236 5.66407 23.5721 5.75232C23.766 5.80151 23.9658 5.70458 24.0442 5.5259C24.1227 5.34723 24.0568 5.13889 23.8881 5.03473ZM20.1126 28.4042L20.5056 28.4035H21.7258L21.7229 34.5457L19.8403 34.5472L19.844 28.4042H20.1126C20.1119 28.4042 20.1119 28.4042 20.1126 28.4042ZM19.8388 36.9886L21.7207 36.9871L21.7199 37.8472L19.8381 37.8487L19.8388 36.9886ZM21.7207 36.1965L19.8388 36.1979L19.8396 35.3378L21.7214 35.3371L21.7207 36.1965ZM21.3455 48.8216C21.23 48.9366 21.0369 49.0741 20.772 49.0741C20.772 49.0741 20.772 49.0741 20.7712 49.0741C20.5063 49.0741 20.3139 48.9381 20.1992 48.8231C19.9587 48.5844 19.8255 48.2212 19.8322 47.8197L19.8381 38.6393L21.7199 38.6386L21.714 47.8241C21.7207 48.2183 21.586 48.5822 21.3455 48.8216ZM17.3806 9.85026C17.3791 12.0812 18.9094 14.0538 21.0621 14.6651L21.0539 27.6129H20.5167L20.5248 15.0897C20.5248 15.0709 20.5167 15.055 20.5137 15.0376C20.51 15.0109 20.5071 14.9848 20.4974 14.9595C20.4893 14.9356 20.4767 14.9146 20.4634 14.8929C20.4501 14.8712 20.4375 14.8503 20.4205 14.8307C20.4035 14.8112 20.3835 14.7967 20.3628 14.7808C20.342 14.7656 20.3228 14.7504 20.2991 14.7389C20.2754 14.7273 20.2495 14.7208 20.2236 14.7135C20.2051 14.7092 20.1903 14.6991 20.1711 14.6962C17.6973 14.388 15.8325 12.3047 15.8347 9.85171C15.8362 7.15712 18.0702 4.96311 20.8149 4.96167C20.9659 4.97541 21.1079 4.96818 21.253 4.97975C19.033 5.52735 17.3828 7.50362 17.3806 9.85026Z" fill="white"/>
</g>
<defs>
<clipPath id="clip0_202_370">
<rect width="33.1046" height="50" fill="white" transform="translate(0.618164)"/>
</clipPath>
</defs>
</svg>
