<svg width="50" height="50" viewBox="0 0 50 50" fill="none" xmlns="http://www.w3.org/2000/svg">
<g clip-path="url(#clip0_202_384)">
<path d="M38.65 43.7522C37.5371 43.7522 36.4899 43.1706 35.9663 42.325L31.8989 33.9478C31.893 33.9346 31.8848 33.9244 31.8766 33.9134L33.0409 31.7811C33.7271 32.1432 34.3082 32.6772 34.6908 33.3414L39.8546 43.7522H38.65ZM29.7739 33.3553H11.8404L13.4307 31.2763H30.9114L29.7739 33.3553ZM27.7578 37.5132H12.4938L11.4332 35.4342H29.8798C29.8798 36.5827 28.9273 37.5132 27.7578 37.5132ZM22.5507 47.9108H18.1059L17.2564 39.595H23.3995L22.5507 47.9108ZM9.86234 32.4723L2.88304 19.8443C2.90467 19.8414 2.92928 19.8414 2.95091 19.8392H3.34922C3.50437 19.8392 3.65876 19.8312 3.80794 19.8151C5.18933 19.8341 6.83924 20.1508 7.73207 21.3973L11.8263 29.9069L9.86234 32.4723ZM2.28856 17.7603V12.5629H3.34997C4.52176 12.5629 5.47203 13.4956 5.47203 14.6418V15.6813C5.47203 16.723 4.68511 17.5876 3.66175 17.7368C3.38204 17.7368 3.11128 17.7442 2.86141 17.7603H2.28856ZM48.9642 43.5795C48.8687 43.0163 48.3264 42.6337 47.7432 42.7259L42.1587 43.6381L36.5682 32.3765C35.4427 30.4153 33.3184 29.1974 31.0195 29.1974H14.6189L15.6795 27.1184H25.6327C26.219 27.1184 26.6941 26.6525 26.6941 26.079C26.6941 25.5047 26.219 25.0395 25.6327 25.0395H15.0232C14.6219 25.0395 14.2527 25.2597 14.0736 25.6137L13.0607 27.5968L9.61545 20.4368C9.59307 20.3893 9.5692 20.3476 9.53862 20.3015C8.8069 19.2277 7.79175 18.5817 6.71468 18.2072C7.26515 17.505 7.59334 16.6308 7.59334 15.6813V14.6418C7.59334 12.3508 5.69132 10.4839 3.34922 10.4839H1.22716C0.641636 10.4839 0.166504 10.9492 0.166504 11.5234V18.7997C0.166504 18.8422 0.174709 18.8817 0.17993 18.9219C0.156061 19.1267 0.191118 19.3396 0.294051 19.5261L8.77408 34.8702L10.8902 39.0179C11.0692 39.3712 11.4362 39.595 11.8404 39.595H15.1231L15.9727 47.9108H11.8404C11.2542 47.9108 10.779 48.3753 10.779 48.9503C10.779 49.5245 11.2542 49.989 11.8404 49.989H28.8184C29.4047 49.989 29.8791 49.5245 29.8791 48.9503C29.8791 48.3753 29.4047 47.9108 28.8184 47.9108H24.6832L25.5328 39.595H27.7578C29.2667 39.595 30.5936 38.813 31.3447 37.6463L34.0993 43.3089C35.0518 44.8641 36.7957 45.8319 38.6493 45.8319H41.553C41.6097 45.8319 41.6671 45.826 41.7268 45.818L48.093 44.7785C48.6703 44.6827 49.0626 44.1487 48.9642 43.5795Z" fill="white"/>
<path d="M37.8385 26.3789C37.253 26.3789 36.7778 26.8368 36.7778 27.4184C36.7778 27.9904 37.253 28.4586 37.8385 28.4586C38.4218 28.4586 38.8999 27.9904 38.8999 27.4184C38.8999 26.8368 38.4218 26.3789 37.8385 26.3789Z" fill="white"/>
<path d="M23.0721 6.88202C27.4676 6.88202 31.109 9.5213 31.9235 12.0787H14.2221C15.0366 9.5213 18.678 6.88202 23.0721 6.88202ZM27.8204 2.62245C28.4231 2.03286 29.4703 2.03505 30.0722 2.62245C30.6906 3.2318 30.6906 4.2208 30.0722 4.82941L28.7886 6.08687C27.7607 5.59237 26.621 5.21492 25.394 5.00205L27.8204 2.62245ZM12.9906 14.1605H33.152C33.7383 14.1605 34.2134 13.6924 34.2134 13.1189C34.2134 11.0341 32.8701 8.81686 30.6563 7.1973L31.573 6.29901C32.433 5.45631 32.7776 4.30273 32.618 3.20473H34.6535C35.8193 3.20473 36.7778 4.14033 36.7778 5.2866V23.2605C36.7778 23.8318 37.2529 24.3 37.8385 24.3C38.4217 24.3 38.8999 23.8318 38.8999 23.2605V5.2866C38.8999 2.98674 37.0001 1.12579 34.6535 1.12579H31.5431C30.0939 -0.264807 27.7577 -0.256761 26.3197 1.15212L22.5857 4.81332C16.453 5.02838 11.9299 9.29527 11.9299 13.1189C11.9299 13.6924 12.4043 14.1605 12.9906 14.1605Z" fill="white"/>
</g>
<defs>
<clipPath id="clip0_202_384">
<rect width="48.9782" height="50" fill="white" transform="translate(0.0673828)"/>
</clipPath>
</defs>
</svg>
