<svg width="205" height="61" viewBox="0 0 205 61" fill="none" xmlns="http://www.w3.org/2000/svg">
<path d="M46.9716 31.7049C46.7975 32.0932 46.6212 32.4814 46.4448 32.8675C45.8365 32.9233 45.14 32.9941 44.481 33.0842C42.7529 33.318 40.5819 33.9958 36.2596 35.9563C31.9395 37.9211 28.2674 42.477 25.3514 46.6104C22.4353 50.746 19.5545 59.9629 17.2137 60.3126C14.8751 60.6644 12.9664 57.02 12.0649 55.5486C11.1656 54.075 8.93281 49.4847 7.92552 47.1724C6.91824 44.858 3.94046 36.6127 2.3557 31.1923C0.773133 25.7698 0.149364 20.5382 0.00389208 13.7622C-0.139376 6.98615 3.70021 3.24959 6.96453 1.98834C7.00861 1.97118 7.05049 1.95617 7.09677 1.94115C8.78734 1.36629 11.7365 1.80602 15.1925 3.10588C18.5979 4.38858 22.4948 6.50997 26.1559 9.32418C26.1559 9.32418 19.8432 6.51855 15.4504 6.62579C11.0576 6.7309 7.99826 9.11397 6.41349 12.1963C4.82873 15.2808 4.46945 21.66 5.04473 26.8466C5.62221 32.0331 7.92552 40.0232 9.36482 44.3689C10.8063 48.7147 13.3631 52.6743 14.9831 53.7253C16.6032 54.7764 17.5752 53.1998 19.6867 48.7597C21.7983 44.3217 27.3196 39.2746 30.1034 37.0781C32.6801 35.0468 40.8243 32.194 46.9716 31.7049Z" fill="#0275D8"/>
<path d="M6.77271 1.1003C9.12451 0.117895 14.7891 0.585502 20.2135 3.57561C25.64 6.56572 30.1034 9.13541 35.4793 7.68754C40.8573 6.23968 47.1942 4.27702 51.0823 6.33191C54.9703 8.38895 54.9219 13.9016 53.3856 19.5107C51.8493 25.1177 45.6094 39.3218 42.4399 43.7619C39.2726 48.1998 38.2653 50.0231 38.2653 50.0231C59.0502 29.2768 61.2102 12.5481 60.4189 9.32416C59.6277 6.10025 58.7152 4.83686 57.0819 3.80941C55.4508 2.78197 51.274 0.727071 45.5124 2.31436C39.7531 3.90379 37.5445 5.02347 36.0082 5.53827C34.472 6.05306 30.5596 6.3791 28.4481 5.81926C26.3343 5.25728 19.3495 1.00592 15.5584 0.304509C9.90477 -0.699343 6.77271 1.1003 6.77271 1.1003Z" fill="#0275D8"/>
<path d="M73.9921 31.6077C72.6641 31.6077 71.4721 31.3517 70.4161 30.8397C69.3761 30.3117 68.5601 29.5917 67.9681 28.6797C67.3761 27.7517 67.0801 26.7277 67.0801 25.6077V20.3277C67.0801 19.2077 67.3761 18.1997 67.9681 17.3037C68.5601 16.3917 69.3761 15.6797 70.4161 15.1677C71.4721 14.6397 72.6641 14.3757 73.9921 14.3757C75.3361 14.3757 76.5281 14.6397 77.5681 15.1677C78.6241 15.6797 79.4481 16.3917 80.0401 17.3037C80.6321 18.1997 80.9281 19.2077 80.9281 20.3277V25.6077C80.9281 26.7277 80.6321 27.7517 80.0401 28.6797C79.4481 29.5917 78.6241 30.3117 77.5681 30.8397C76.5121 31.3517 75.3201 31.6077 73.9921 31.6077ZM73.9921 29.6397C75.4801 29.6397 76.6401 29.2717 77.4721 28.5357C78.3041 27.7997 78.7201 26.8157 78.7201 25.5837V20.3757C78.7201 19.1437 78.3041 18.1677 77.4721 17.4477C76.6401 16.7117 75.4801 16.3437 73.9921 16.3437C72.5201 16.3437 71.3681 16.7117 70.5361 17.4477C69.7041 18.1677 69.2881 19.1437 69.2881 20.3757V25.5837C69.2881 26.8157 69.7041 27.7997 70.5361 28.5357C71.3681 29.2717 72.5201 29.6397 73.9921 29.6397Z" fill="#003366"/>
<path d="M84.8399 31.3917C84.5199 31.3917 84.2479 31.2957 84.0239 31.1037C83.7999 30.8957 83.6879 30.6397 83.6879 30.3357V15.6477C83.6879 15.3437 83.7919 15.0957 83.9999 14.9037C84.2239 14.6957 84.5039 14.5917 84.8399 14.5917H90.4559C91.8159 14.5917 93.0159 14.8477 94.0559 15.3597C95.0959 15.8717 95.9039 16.5917 96.4799 17.5197C97.0719 18.4317 97.3679 19.4797 97.3679 20.6637V25.2717C97.3679 26.4557 97.0719 27.5117 96.4799 28.4397C95.9039 29.3677 95.0879 30.0957 94.0319 30.6237C92.9919 31.1357 91.7999 31.3917 90.4559 31.3917H84.8399ZM90.2159 29.4237C91.7519 29.4237 92.9519 29.0637 93.8159 28.3437C94.6799 27.6077 95.1119 26.5917 95.1119 25.2957V20.6397C95.1119 19.3597 94.6799 18.3597 93.8159 17.6397C92.9519 16.9197 91.7519 16.5597 90.2159 16.5597H85.9439V29.4237H90.2159Z" fill="#003366"/>
<path d="M106.805 31.6077C105.477 31.6077 104.285 31.3517 103.229 30.8397C102.189 30.3117 101.373 29.5917 100.781 28.6797C100.189 27.7517 99.8926 26.7277 99.8926 25.6077V20.3277C99.8926 19.2077 100.189 18.1997 100.781 17.3037C101.373 16.3917 102.189 15.6797 103.229 15.1677C104.285 14.6397 105.477 14.3757 106.805 14.3757C108.149 14.3757 109.341 14.6397 110.381 15.1677C111.437 15.6797 112.261 16.3917 112.853 17.3037C113.445 18.1997 113.741 19.2077 113.741 20.3277V25.6077C113.741 26.7277 113.445 27.7517 112.853 28.6797C112.261 29.5917 111.437 30.3117 110.381 30.8397C109.325 31.3517 108.133 31.6077 106.805 31.6077ZM106.805 29.6397C108.293 29.6397 109.453 29.2717 110.285 28.5357C111.117 27.7997 111.533 26.8157 111.533 25.5837V20.3757C111.533 19.1437 111.117 18.1677 110.285 17.4477C109.453 16.7117 108.293 16.3437 106.805 16.3437C105.333 16.3437 104.181 16.7117 103.349 17.4477C102.517 18.1677 102.101 19.1437 102.101 20.3757V25.5837C102.101 26.8157 102.517 27.7997 103.349 28.5357C104.181 29.2717 105.333 29.6397 106.805 29.6397Z" fill="#003366"/>
<path d="M116.5 16.3197C116.5 15.7117 116.684 15.2397 117.052 14.9037C117.436 14.5517 117.964 14.3757 118.636 14.3757L127.948 28.5357L128.116 28.3917L127.42 27.2397V14.3757C128.156 14.3757 128.708 14.5357 129.076 14.8557C129.46 15.1757 129.652 15.6397 129.652 16.2477V29.8317C129.652 30.3437 129.468 30.7677 129.1 31.1037C128.748 31.4397 128.292 31.6077 127.732 31.6077L118.204 17.1357L118.036 17.2797L118.732 18.4317V29.7357C118.732 30.3437 118.54 30.8077 118.156 31.1277C117.788 31.4477 117.236 31.6077 116.5 31.6077V16.3197Z" fill="#003366"/>
<path d="M137.43 16.5837H131.574C131.574 15.2557 132.198 14.5917 133.446 14.5917H145.518C145.518 15.9197 144.894 16.5837 143.646 16.5837H139.686V29.7357C139.686 30.3437 139.494 30.8077 139.11 31.1277C138.726 31.4477 138.166 31.6077 137.43 31.6077V16.5837Z" fill="#003366"/>
<path d="M152.789 31.6077C151.461 31.6077 150.269 31.3517 149.213 30.8397C148.173 30.3117 147.357 29.5917 146.765 28.6797C146.173 27.7517 145.877 26.7277 145.877 25.6077V20.3277C145.877 19.2077 146.173 18.1997 146.765 17.3037C147.357 16.3917 148.173 15.6797 149.213 15.1677C150.269 14.6397 151.461 14.3757 152.789 14.3757C154.133 14.3757 155.325 14.6397 156.365 15.1677C157.421 15.6797 158.245 16.3917 158.837 17.3037C159.429 18.1997 159.725 19.2077 159.725 20.3277V25.6077C159.725 26.7277 159.429 27.7517 158.837 28.6797C158.245 29.5917 157.421 30.3117 156.365 30.8397C155.309 31.3517 154.117 31.6077 152.789 31.6077ZM152.789 29.6397C154.277 29.6397 155.437 29.2717 156.269 28.5357C157.101 27.7997 157.517 26.8157 157.517 25.5837V20.3757C157.517 19.1437 157.101 18.1677 156.269 17.4477C155.437 16.7117 154.277 16.3437 152.789 16.3437C151.317 16.3437 150.165 16.7117 149.333 17.4477C148.501 18.1677 148.085 19.1437 148.085 20.3757V25.5837C148.085 26.8157 148.501 27.7997 149.333 28.5357C150.165 29.2717 151.317 29.6397 152.789 29.6397Z" fill="#003366"/>
<path d="M168.672 15.6477C168.672 15.3437 168.776 15.0957 168.984 14.9037C169.208 14.6957 169.488 14.5917 169.824 14.5917H176.448C178 14.5917 179.232 15.0477 180.144 15.9597C181.072 16.8557 181.536 18.0557 181.536 19.5597C181.536 21.4477 180.712 22.7837 179.064 23.5677V23.6397C179.784 23.9437 180.336 24.4077 180.72 25.0317C181.104 25.6397 181.296 26.3837 181.296 27.2637V29.7357C181.296 30.3437 181.104 30.8077 180.72 31.1277C180.336 31.4477 179.776 31.6077 179.04 31.6077V27.4077C179.04 26.4637 178.824 25.7517 178.392 25.2717C177.976 24.7757 177.352 24.5277 176.52 24.5277H170.904V29.7357C170.904 30.3437 170.712 30.8077 170.328 31.1277C169.96 31.4477 169.408 31.6077 168.672 31.6077V15.6477ZM176.376 22.5837C177.256 22.5837 177.952 22.3117 178.464 21.7677C178.992 21.2237 179.256 20.4797 179.256 19.5357C179.256 18.5757 179.008 17.8397 178.512 17.3277C178.016 16.8157 177.304 16.5597 176.376 16.5597H170.904V22.5837H176.376Z" fill="#003366"/>
<path d="M185.137 16.2477C185.137 15.6557 185.329 15.1997 185.713 14.8797C186.113 14.5437 186.673 14.3757 187.393 14.3757V29.7357C187.393 30.3277 187.193 30.7917 186.793 31.1277C186.409 31.4477 185.857 31.6077 185.137 31.6077V16.2477Z" fill="#003366"/>
<path d="M197.555 31.6077C196.227 31.6077 195.035 31.3517 193.979 30.8397C192.939 30.3117 192.123 29.5917 191.531 28.6797C190.939 27.7517 190.643 26.7277 190.643 25.6077V20.3277C190.643 19.2077 190.939 18.1997 191.531 17.3037C192.123 16.3917 192.939 15.6797 193.979 15.1677C195.035 14.6397 196.227 14.3757 197.555 14.3757C198.899 14.3757 200.091 14.6397 201.131 15.1677C202.187 15.6797 203.011 16.3917 203.603 17.3037C204.195 18.1997 204.491 19.2077 204.491 20.3277V25.6077C204.491 26.7277 204.195 27.7517 203.603 28.6797C203.011 29.5917 202.187 30.3117 201.131 30.8397C200.075 31.3517 198.883 31.6077 197.555 31.6077ZM197.555 29.6397C199.043 29.6397 200.203 29.2717 201.035 28.5357C201.867 27.7997 202.283 26.8157 202.283 25.5837V20.3757C202.283 19.1437 201.867 18.1677 201.035 17.4477C200.203 16.7117 199.043 16.3437 197.555 16.3437C196.083 16.3437 194.931 16.7117 194.099 17.4477C193.267 18.1677 192.851 19.1437 192.851 20.3757V25.5837C192.851 26.8157 193.267 27.7997 194.099 28.5357C194.931 29.2717 196.083 29.6397 197.555 29.6397Z" fill="#003366"/>
<path d="M70.8623 45.544C69.5716 45.544 68.5369 45.1187 67.7583 44.2681C66.9839 43.4175 66.5967 42.3109 66.5967 40.9483C66.5967 39.4841 66.9924 38.3161 67.7837 37.4444C68.575 36.5727 69.652 36.1368 71.0146 36.1368C72.2715 36.1368 73.2829 36.56 74.0488 37.4063C74.819 38.2527 75.2041 39.3593 75.2041 40.7261C75.2041 42.2115 74.8105 43.3858 74.0234 44.2491C73.2363 45.1124 72.1826 45.544 70.8623 45.544ZM70.9385 37.1016C69.9821 37.1016 69.2056 37.4465 68.6089 38.1363C68.0122 38.8261 67.7139 39.7317 67.7139 40.8531C67.7139 41.9745 68.0037 42.878 68.5835 43.5635C69.1675 44.2449 69.9271 44.5855 70.8623 44.5855C71.861 44.5855 72.6481 44.2597 73.2236 43.608C73.7992 42.9563 74.0869 42.0443 74.0869 40.8721C74.0869 39.6703 73.8076 38.7414 73.249 38.0855C72.6904 37.4296 71.9202 37.1016 70.9385 37.1016Z" fill="#0275D8"/>
<path d="M82.4023 45.3917H81.3613V44.2872H81.3359C80.8535 45.1251 80.1087 45.544 79.1016 45.544C78.2848 45.544 77.631 45.2541 77.1401 44.6744C76.6535 44.0904 76.4102 43.2969 76.4102 42.294C76.4102 41.2191 76.681 40.358 77.2227 39.7105C77.7643 39.063 78.4858 38.7393 79.3872 38.7393C80.2801 38.7393 80.9297 39.0906 81.3359 39.793H81.3613V35.7686H82.4023V45.3917ZM81.3613 42.4527V41.4942C81.3613 40.9695 81.1878 40.5251 80.8408 40.1612C80.4938 39.7973 80.0537 39.6153 79.5205 39.6153C78.8857 39.6153 78.3864 39.848 78.0225 40.3135C77.6585 40.779 77.4766 41.4223 77.4766 42.2432C77.4766 42.9922 77.6501 43.5847 77.9971 44.0206C78.3483 44.4522 78.818 44.668 79.4062 44.668C79.986 44.668 80.4557 44.4586 80.8154 44.0396C81.1794 43.6207 81.3613 43.0917 81.3613 42.4527Z" fill="#0275D8"/>
<path d="M87.2266 45.544C86.266 45.544 85.4979 45.2414 84.9224 44.6363C84.3511 44.0269 84.0654 43.2208 84.0654 42.2178C84.0654 41.126 84.3638 40.2733 84.9604 39.6597C85.5571 39.0461 86.3633 38.7393 87.3789 38.7393C88.348 38.7393 89.1034 39.0377 89.645 39.6343C90.1909 40.231 90.4639 41.0583 90.4639 42.1163C90.4639 43.1531 90.1698 43.9846 89.5815 44.6109C88.9976 45.233 88.2126 45.544 87.2266 45.544ZM87.3027 39.6153C86.6341 39.6153 86.1051 39.8438 85.7158 40.3008C85.3265 40.7536 85.1318 41.3799 85.1318 42.1797C85.1318 42.9499 85.3286 43.5572 85.7222 44.0015C86.1157 44.4459 86.6426 44.668 87.3027 44.668C87.9756 44.668 88.4919 44.4501 88.8516 44.0142C89.2155 43.5783 89.3975 42.9584 89.3975 42.1544C89.3975 41.3419 89.2155 40.7156 88.8516 40.2755C88.4919 39.8353 87.9756 39.6153 87.3027 39.6153Z" fill="#0275D8"/>
<path d="M97.5225 45.3917H96.4814V41.6846C96.4814 40.3051 95.9779 39.6153 94.9707 39.6153C94.4502 39.6153 94.0186 39.8121 93.6758 40.2056C93.3372 40.595 93.168 41.088 93.168 41.6846V45.3917H92.127V38.8917H93.168V39.9708H93.1934C93.6842 39.1498 94.3952 38.7393 95.3262 38.7393C96.0371 38.7393 96.5809 38.97 96.9575 39.4312C97.3341 39.8882 97.5225 40.5505 97.5225 41.418V45.3917Z" fill="#0275D8"/>
<path d="M102.505 45.3282C102.26 45.4636 101.936 45.5313 101.534 45.5313C100.396 45.5313 99.8267 44.8965 99.8267 43.627V39.7803H98.7095V38.8917H99.8267V37.3047L100.868 36.9683V38.8917H102.505V39.7803H100.868V43.4429C100.868 43.8788 100.942 44.1898 101.09 44.376C101.238 44.5622 101.483 44.6553 101.826 44.6553C102.089 44.6553 102.315 44.5834 102.505 44.4395V45.3282Z" fill="#0275D8"/>
<path d="M106.612 45.544C105.652 45.544 104.884 45.2414 104.308 44.6363C103.737 44.0269 103.451 43.2208 103.451 42.2178C103.451 41.126 103.75 40.2733 104.346 39.6597C104.943 39.0461 105.749 38.7393 106.765 38.7393C107.734 38.7393 108.489 39.0377 109.031 39.6343C109.577 40.231 109.85 41.0583 109.85 42.1163C109.85 43.1531 109.556 43.9846 108.967 44.6109C108.383 45.233 107.598 45.544 106.612 45.544ZM106.688 39.6153C106.02 39.6153 105.491 39.8438 105.102 40.3008C104.712 40.7536 104.518 41.3799 104.518 42.1797C104.518 42.9499 104.714 43.5572 105.108 44.0015C105.501 44.4459 106.028 44.668 106.688 44.668C107.361 44.668 107.878 44.4501 108.237 44.0142C108.601 43.5783 108.783 42.9584 108.783 42.1544C108.783 41.3419 108.601 40.7156 108.237 40.2755C107.878 39.8353 107.361 39.6153 106.688 39.6153Z" fill="#0275D8"/>
<path d="M112.554 45.3917H111.513V35.7686H112.554V45.3917Z" fill="#0275D8"/>
<path d="M117.378 45.544C116.417 45.544 115.649 45.2414 115.074 44.6363C114.502 44.0269 114.217 43.2208 114.217 42.2178C114.217 41.126 114.515 40.2733 115.112 39.6597C115.708 39.0461 116.515 38.7393 117.53 38.7393C118.499 38.7393 119.255 39.0377 119.796 39.6343C120.342 40.231 120.615 41.0583 120.615 42.1163C120.615 43.1531 120.321 43.9846 119.733 44.6109C119.149 45.233 118.364 45.544 117.378 45.544ZM117.454 39.6153C116.785 39.6153 116.257 39.8438 115.867 40.3008C115.478 40.7536 115.283 41.3799 115.283 42.1797C115.283 42.9499 115.48 43.5572 115.874 44.0015C116.267 44.4459 116.794 44.668 117.454 44.668C118.127 44.668 118.643 44.4501 119.003 44.0142C119.367 43.5783 119.549 42.9584 119.549 42.1544C119.549 41.3419 119.367 40.7156 119.003 40.2755C118.643 39.8353 118.127 39.6153 117.454 39.6153Z" fill="#0275D8"/>
<path d="M127.826 44.8712C127.826 47.2579 126.684 48.4512 124.398 48.4512C123.594 48.4512 122.892 48.2989 122.291 47.9942V46.9532C123.023 47.3594 123.721 47.5626 124.386 47.5626C125.985 47.5626 126.785 46.712 126.785 45.0108V44.2999H126.76C126.265 45.1293 125.52 45.544 124.525 45.544C123.717 45.544 123.065 45.2562 122.57 44.6807C122.079 44.101 121.834 43.3244 121.834 42.3511C121.834 41.2466 122.098 40.3686 122.627 39.7169C123.161 39.0652 123.889 38.7393 124.811 38.7393C125.687 38.7393 126.337 39.0906 126.76 39.793H126.785V38.8917H127.826V44.8712ZM126.785 42.4527V41.4942C126.785 40.9779 126.61 40.5357 126.258 40.1675C125.911 39.7994 125.478 39.6153 124.957 39.6153C124.314 39.6153 123.81 39.8502 123.446 40.3199C123.082 40.7854 122.9 41.4392 122.9 42.2813C122.9 43.0049 123.074 43.5847 123.421 44.0206C123.772 44.4522 124.236 44.668 124.811 44.668C125.395 44.668 125.869 44.4607 126.233 44.046C126.601 43.6312 126.785 43.1002 126.785 42.4527Z" fill="#0275D8"/>
<path d="M130.467 37.2413C130.281 37.2413 130.122 37.1778 129.991 37.0508C129.86 36.9239 129.794 36.7631 129.794 36.5684C129.794 36.3738 129.86 36.213 129.991 36.086C130.122 35.9548 130.281 35.8892 130.467 35.8892C130.657 35.8892 130.818 35.9548 130.949 36.086C131.085 36.213 131.152 36.3738 131.152 36.5684C131.152 36.7546 131.085 36.9133 130.949 37.0445C130.818 37.1757 130.657 37.2413 130.467 37.2413ZM130.975 45.3917H129.934V38.8917H130.975V45.3917Z" fill="#0275D8"/>
<path d="M137.735 45.3917H136.694V44.376H136.668C136.216 45.1547 135.549 45.544 134.669 45.544C134.021 45.544 133.514 45.3726 133.146 45.0298C132.782 44.6871 132.6 44.2322 132.6 43.6651C132.6 42.4506 133.315 41.7439 134.745 41.545L136.694 41.272C136.694 40.1675 136.247 39.6153 135.354 39.6153C134.572 39.6153 133.865 39.8819 133.234 40.4151V39.3487C133.873 38.9424 134.61 38.7393 135.443 38.7393C136.971 38.7393 137.735 39.5476 137.735 41.1641V45.3917ZM136.694 42.1036L135.126 42.3194C134.644 42.3871 134.28 42.5077 134.034 42.6812C133.789 42.8505 133.666 43.1531 133.666 43.5889C133.666 43.9063 133.778 44.1666 134.002 44.3697C134.231 44.5686 134.534 44.668 134.91 44.668C135.426 44.668 135.852 44.4882 136.186 44.1285C136.525 43.7645 136.694 43.3054 136.694 42.751V42.1036Z" fill="#0275D8"/>
<path d="M144.33 44.4522H144.305V48.3814H143.264V38.8917H144.305V40.0342H144.33C144.842 39.171 145.591 38.7393 146.577 38.7393C147.415 38.7393 148.069 39.0313 148.539 39.6153C149.008 40.195 149.243 40.9737 149.243 41.9512C149.243 43.0388 148.979 43.9105 148.45 44.5665C147.921 45.2182 147.197 45.544 146.279 45.544C145.437 45.544 144.787 45.1801 144.33 44.4522ZM144.305 41.8306V42.7383C144.305 43.2758 144.478 43.7328 144.825 44.1094C145.176 44.4818 145.621 44.668 146.158 44.668C146.789 44.668 147.282 44.4268 147.637 43.9444C147.997 43.462 148.177 42.7912 148.177 41.9322C148.177 41.2086 148.01 40.6415 147.675 40.231C147.341 39.8205 146.888 39.6153 146.317 39.6153C145.712 39.6153 145.225 39.8269 144.857 40.2501C144.489 40.669 144.305 41.1959 144.305 41.8306Z" fill="#0275D8"/>
<path d="M155.559 45.3917H154.518V44.376H154.493C154.04 45.1547 153.373 45.544 152.493 45.544C151.846 45.544 151.338 45.3726 150.97 45.0298C150.606 44.6871 150.424 44.2322 150.424 43.6651C150.424 42.4506 151.139 41.7439 152.569 41.545L154.518 41.272C154.518 40.1675 154.072 39.6153 153.179 39.6153C152.396 39.6153 151.689 39.8819 151.059 40.4151V39.3487C151.698 38.9424 152.434 38.7393 153.268 38.7393C154.795 38.7393 155.559 39.5476 155.559 41.1641V45.3917ZM154.518 42.1036L152.95 42.3194C152.468 42.3871 152.104 42.5077 151.858 42.6812C151.613 42.8505 151.49 43.1531 151.49 43.5889C151.49 43.9063 151.602 44.1666 151.827 44.3697C152.055 44.5686 152.358 44.668 152.734 44.668C153.251 44.668 153.676 44.4882 154.01 44.1285C154.349 43.7645 154.518 43.3054 154.518 42.751V42.1036Z" fill="#0275D8"/>
<path d="M160.91 39.9454C160.728 39.8057 160.466 39.7359 160.123 39.7359C159.679 39.7359 159.306 39.9454 159.006 40.3643C158.71 40.7833 158.562 41.3546 158.562 42.0782V45.3917H157.521V38.8917H158.562V40.231H158.587C158.735 39.774 158.961 39.4185 159.266 39.1646C159.571 38.9065 159.911 38.7774 160.288 38.7774C160.559 38.7774 160.766 38.807 160.91 38.8663V39.9454Z" fill="#0275D8"/>
<path d="M166.693 45.3917H165.652V44.376H165.626C165.174 45.1547 164.507 45.544 163.627 45.544C162.979 45.544 162.472 45.3726 162.104 45.0298C161.74 44.6871 161.558 44.2322 161.558 43.6651C161.558 42.4506 162.273 41.7439 163.703 41.545L165.652 41.272C165.652 40.1675 165.205 39.6153 164.312 39.6153C163.53 39.6153 162.823 39.8819 162.192 40.4151V39.3487C162.831 38.9424 163.568 38.7393 164.401 38.7393C165.929 38.7393 166.693 39.5476 166.693 41.1641V45.3917ZM165.652 42.1036L164.084 42.3194C163.602 42.3871 163.238 42.5077 162.992 42.6812C162.747 42.8505 162.624 43.1531 162.624 43.5889C162.624 43.9063 162.736 44.1666 162.96 44.3697C163.189 44.5686 163.492 44.668 163.868 44.668C164.384 44.668 164.81 44.4882 165.144 44.1285C165.483 43.7645 165.652 43.3054 165.652 42.751V42.1036Z" fill="#0275D8"/>
<path d="M175.237 45.3282C174.991 45.4636 174.668 45.5313 174.266 45.5313C173.127 45.5313 172.558 44.8965 172.558 43.627V39.7803H171.441V38.8917H172.558V37.3047L173.599 36.9683V38.8917H175.237V39.7803H173.599V43.4429C173.599 43.8788 173.673 44.1898 173.821 44.376C173.969 44.5622 174.215 44.6553 174.558 44.6553C174.82 44.6553 175.046 44.5834 175.237 44.4395V45.3282Z" fill="#0275D8"/>
<path d="M179.344 45.544C178.383 45.544 177.615 45.2414 177.04 44.6363C176.468 44.0269 176.183 43.2208 176.183 42.2178C176.183 41.126 176.481 40.2733 177.078 39.6597C177.674 39.0461 178.48 38.7393 179.496 38.7393C180.465 38.7393 181.221 39.0377 181.762 39.6343C182.308 40.231 182.581 41.0583 182.581 42.1163C182.581 43.1531 182.287 43.9846 181.699 44.6109C181.115 45.233 180.33 45.544 179.344 45.544ZM179.42 39.6153C178.751 39.6153 178.222 39.8438 177.833 40.3008C177.444 40.7536 177.249 41.3799 177.249 42.1797C177.249 42.9499 177.446 43.5572 177.839 44.0015C178.233 44.4459 178.76 44.668 179.42 44.668C180.093 44.668 180.609 44.4501 180.969 44.0142C181.333 43.5783 181.515 42.9584 181.515 42.1544C181.515 41.3419 181.333 40.7156 180.969 40.2755C180.609 39.8353 180.093 39.6153 179.42 39.6153Z" fill="#0275D8"/>
<path d="M189.792 45.3917H188.751V44.2872H188.726C188.243 45.1251 187.498 45.544 186.491 45.544C185.674 45.544 185.021 45.2541 184.53 44.6744C184.043 44.0904 183.8 43.2969 183.8 42.294C183.8 41.2191 184.071 40.358 184.612 39.7105C185.154 39.063 185.875 38.7393 186.777 38.7393C187.67 38.7393 188.319 39.0906 188.726 39.793H188.751V35.7686H189.792V45.3917ZM188.751 42.4527V41.4942C188.751 40.9695 188.577 40.5251 188.23 40.1612C187.883 39.7973 187.443 39.6153 186.91 39.6153C186.275 39.6153 185.776 39.848 185.412 40.3135C185.048 40.779 184.866 41.4223 184.866 42.2432C184.866 42.9922 185.04 43.5847 185.387 44.0206C185.738 44.4522 186.208 44.668 186.796 44.668C187.376 44.668 187.845 44.4586 188.205 44.0396C188.569 43.6207 188.751 43.0917 188.751 42.4527Z" fill="#0275D8"/>
<path d="M194.616 45.544C193.656 45.544 192.888 45.2414 192.312 44.6363C191.741 44.0269 191.455 43.2208 191.455 42.2178C191.455 41.126 191.753 40.2733 192.35 39.6597C192.947 39.0461 193.753 38.7393 194.769 38.7393C195.738 38.7393 196.493 39.0377 197.035 39.6343C197.581 40.231 197.854 41.0583 197.854 42.1163C197.854 43.1531 197.559 43.9846 196.971 44.6109C196.387 45.233 195.602 45.544 194.616 45.544ZM194.692 39.6153C194.024 39.6153 193.495 39.8438 193.105 40.3008C192.716 40.7536 192.521 41.3799 192.521 42.1797C192.521 42.9499 192.718 43.5572 193.112 44.0015C193.505 44.4459 194.032 44.668 194.692 44.668C195.365 44.668 195.882 44.4501 196.241 44.0142C196.605 43.5783 196.787 42.9584 196.787 42.1544C196.787 41.3419 196.605 40.7156 196.241 40.2755C195.882 39.8353 195.365 39.6153 194.692 39.6153Z" fill="#0275D8"/>
<path d="M199.123 45.1568V44.0396C199.69 44.4586 200.314 44.668 200.996 44.668C201.91 44.668 202.367 44.3633 202.367 43.754C202.367 43.5805 202.326 43.4345 202.246 43.316C202.17 43.1933 202.064 43.0853 201.929 42.9922C201.798 42.8991 201.641 42.8166 201.459 42.7447C201.281 42.6685 201.089 42.5902 200.881 42.5098C200.594 42.3956 200.34 42.2813 200.12 42.1671C199.904 42.0486 199.722 41.9174 199.574 41.7735C199.43 41.6254 199.32 41.4582 199.244 41.272C199.172 41.0858 199.136 40.8679 199.136 40.6182C199.136 40.3135 199.206 40.0448 199.345 39.8121C199.485 39.5751 199.671 39.3783 199.904 39.2217C200.137 39.0609 200.401 38.9403 200.697 38.8599C200.998 38.7795 201.307 38.7393 201.624 38.7393C202.187 38.7393 202.69 38.8366 203.135 39.0313V40.085C202.657 39.7719 202.106 39.6153 201.484 39.6153C201.29 39.6153 201.114 39.6386 200.958 39.6851C200.801 39.7274 200.666 39.7888 200.551 39.8692C200.441 39.9496 200.354 40.0469 200.291 40.1612C200.232 40.2712 200.202 40.3939 200.202 40.5294C200.202 40.6986 200.232 40.8404 200.291 40.9547C200.354 41.0689 200.445 41.1705 200.564 41.2593C200.682 41.3482 200.826 41.4286 200.996 41.5005C201.165 41.5725 201.357 41.6508 201.573 41.7354C201.861 41.8454 202.119 41.9597 202.348 42.0782C202.576 42.1924 202.771 42.3236 202.932 42.4717C203.092 42.6156 203.215 42.7828 203.3 42.9732C203.389 43.1636 203.433 43.39 203.433 43.6524C203.433 43.974 203.361 44.2533 203.217 44.4903C203.078 44.7273 202.889 44.9241 202.652 45.0806C202.415 45.2372 202.142 45.3536 201.833 45.4297C201.525 45.5059 201.201 45.544 200.862 45.544C200.194 45.544 199.614 45.4149 199.123 45.1568Z" fill="#0275D8"/>
</svg>
